<?xml version="1.0" encoding="utf-8"?>
<!-- Generator: Adobe Illustrator 16.0.0, SVG Export Plug-In . SVG Version: 6.00 Build 0)  -->
<!DOCTYPE svg PUBLIC "-//W3C//DTD SVG 1.1//EN" "http://www.w3.org/Graphics/SVG/1.1/DTD/svg11.dtd">
<svg version="1.1" id="圖層_1" xmlns="http://www.w3.org/2000/svg" xmlns:xlink="http://www.w3.org/1999/xlink" x="0px" y="0px"
	 width="1269.05px" height="1476.98px" viewBox="0 0 1269.05 1476.98" enable-background="new 0 0 1269.05 1476.98"
	 xml:space="preserve">
<g>
	<defs>
		<rect id="SVGID_1_" x="0.001" y="0.002" width="1269.046" height="1476.977"/>
	</defs>
	<clipPath id="SVGID_2_">
		<use xlink:href="#SVGID_1_"  overflow="visible"/>
	</clipPath>
	<path clip-path="url(#SVGID_2_)" fill="#4172A1" d="M1165.175,800.041c-7.68-112.429-48.236-219.999-118.945-308.462
		c-32.717-41.038-71.781-78.071-115.715-107.052c-48.285-31.846-99.285-57.882-155.285-73.173
		c-47.582-12.991-94.662-20.311-144-20.311c-13.761,0-28.352-1.367-42,0.424c-23.018,3.022-46.087,4.291-69,9.09
		c-80.034,16.761-156.77,50.312-221.7,100.486c-56.44,43.566-103.613,97.436-139.654,159c-31.035,53.013-51.646,111.808-62.891,172
		c-45.594,242.255,89.172,497.746,318.415,593.216c89.546,37.293,186.663,50.145,282.831,38.6c73-8.768,144-35.346,207.17-72.816
		c45.559-27,87.189-61.604,122.658-101C1120.89,1085.829,1174.769,940.51,1165.175,800.041 M1054.644,848.179
		c-6.445,0-6.436-10,0-10C1061.087,838.179,1061.077,848.179,1054.644,848.179"/>
	<path clip-path="url(#SVGID_2_)" fill="#FFFFFF" d="M1152.19,799.041c-9.961-227.292-180.113-424.294-397.961-480.285
		c-40.234-10.34-81.482-15.714-123-15.714c-12.415,0-25.703-1.333-38,0.428c-34.391,4.925-68.143,7.896-102,16.858
		c-89.602,23.714-171.393,71.714-237.255,136.714c-44.745,44.098-78.127,96-105.875,152
		c-23.491,47.18-38.356,101.658-44.044,153.999c-7.367,67.803-4.609,134.7,12.93,201.001
		c46.63,176.275,186.658,319.025,361.244,370.631c73.759,21.803,152,26.369,228,15.07c173.986-25.631,328.49-144.49,400.369-304.699
		C1141.229,967.655,1155.892,883.565,1152.19,799.041 M1054.644,848.179c-6.445,0-6.436-10,0-10
		C1061.087,838.179,1061.077,848.179,1054.644,848.179"/>
	<path clip-path="url(#SVGID_2_)" fill="#4172A1" d="M970.229,459.131c-61.119-56.909-136.484-97.089-217-118.089
		c-47.215-12.422-103.043-22-152-15.576c-17.26,2.267-34.752,2.083-52,4.901c-34.629,5.675-69,14.156-101.83,26.675
		c-137.77,52.094-247.711,164.486-297.214,303.17c-59.956,167.877-23.525,362.455,92.344,497.832
		c43.192,50.463,96.7,91.504,155.7,121.74c44.524,22.824,92.727,38.4,142,46.453c47,7.807,96.459,11.279,144,4.506
		c59.734-8.512,117.734-24.125,172-51.959c157.918-81,261.826-241.318,273.91-417.74
		C1140.229,711.853,1079.495,560.874,970.229,459.131 M1054.644,820.767C1033.497,820.636,1032.157,820.634,1054.644,820.767
		C1078.202,820.906,1077.61,820.91,1054.644,820.767"/>
	<path clip-path="url(#SVGID_2_)" fill="#FFFFFF" d="M609.229,402.042h1c4.313,10,11,19.18,16.885,28.424
		c5.355,8.65,11.11,23.913,19.325,29.973c3.791,2.87,19.791,3.603,22.188-1.397c2.395-5.634,0.604-15,0.604-21v-48
		c0-6.445,1.996-16.896-0.604-22.852c-2.109-4.831-17.521-4.853-20.396-0.714c-4.184,6.116-1,23.232-1,30.566v28
		c-6.619-10.174-12.719-20.658-19.062-31c-7.938-12.797-13.319-30-29.938-30c-2.693,0-7.125-0.772-9.397,1.028
		c-3.958,3.135-1.603,17.302-1.603,21.972v51c0,5.643-2,15.562,0.603,20.682c1.817,3.692,16.929,3.796,19.369,0.715
		c4.387-5.397,2.028-23.397,2.028-30.397V402.042z M488.229,484.042c5.542-0.238,19.529-1.422,22-7
		c2.477-5.412-0.677-15,3.603-19.263c6.668-6.62,22.836-6.038,31.397-9.737c4.566,12.064,10.829,20.11,24,16
		c2.351-0.734,8.38-1.235,9-4c1.489-5.475-12.776-20.494-16-25c-9.215-13.81-19.052-27.381-28.706-40.999
		c-3.294-4.637-7.302-13.3-12.468-15.934c-4.45-2.269-15.418,1.509-19.547,3.933c-6.45,3.403-5,19.649-5.319,26
		C494.918,433.346,488.229,458.646,488.229,484.042 M753.229,381.042c-1.74,4.142-6.656,12.246-5.27,16.775
		c1.777,5.794,19.916,9.51,25.27,11.225c-9.813,16-14,36.685-21.121,54c-1.689,4.1-7.697,14.41-4.236,18.437
		c2.289,2.666,16.611,8.603,19.357,5.906c4-3.799,5.994-14.195,7.92-19.343c5.852-15.793,15.795-33.378,18.08-50l26.701,7.709
		l5.564-10.707l1.734-7.002L753.229,381.042z M442.229,470.042c-12.554-13-27.273-33.377-43-42.353
		c-4.575-2.611-16.807,3.968-19,8.617c-1.62,3.992,2.648,11.736,3.715,15.736c3.939,14.799,9.027,29.288,13.285,44l-32-33
		l-12.09-10.267l-18.91,10.267c5.732,8.138,13.861,14.213,21,21.039c10.766,10.295,20.668,21.576,31.83,31.447
		c5.025,4.514,11.687,14.246,18.17,16.032c4,1.119,15.82-6.518,17.958-10.047c2.642-4.301-1.556-12.223-2.958-16.471
		c-4.631-14.627-8.479-29.662-14-44l32,32c3.32,3.32,8,10.301,13,11.119c4.367,0.881,18-7.519,18.226-12.119
		c0.27-7.724-4.681-17.716-6.857-25c-4.466-14.948-8.369-30-12.877-45c-1.562-5-2.859-18.893-7.216-21.928
		c-4.276-2.888-18.339,7.522-18.276,11.933c0.197,6.473,4.241,14.995,6.366,20.995C434.818,445.193,438.741,457.662,442.229,470.042
		"/>
	<polygon clip-path="url(#SVGID_2_)" fill="#4172A1" points="516.229,406.042 513.229,438.042 534.229,433.042 	"/>
	<path clip-path="url(#SVGID_2_)" fill="#FFFFFF" d="M874.229,529.042l-42-27l11-18c9.488,5.093,18,12,27,18.024
		c2.836,1.976,7.172,6.252,10.906,5.976c5.094-0.623,11.094-11.481,7.732-15.696c-7.16-8.755-24.447-18.304-34.639-23.304l9-15
		c14.744,6.202,28,24.68,44,27l9-17c-14-5.881-27.719-17.545-40-26.363c-4.76-3.417-12.039-10.256-18-10.99
		c-6.037-0.647-11.037,11.353-14,15.353c-10.416,15.274-20.793,30.637-31.195,46c-2.58,3.811-10.559,12.064-8.805,17
		c1.9,4.403,9.201,7.647,13,10.14c10.51,6.897,20.951,13.958,31.285,21.113c3.563,2.468,9.715,8.925,14.584,7.923
		C867.847,543.213,872.507,533.12,874.229,529.042"/>
	<path clip-path="url(#SVGID_2_)" fill="#4679A8" d="M442.229,470.042l1,1L442.229,470.042z"/>
	<path clip-path="url(#SVGID_2_)" fill="#FFFFFF" d="M311.013,494.797c-3.72,1.546-12.999,9.369-12.421,13.914
		c0.623,5.156,8.97,11.532,12.422,15c11.477,11.528,22.734,23.239,33.961,35c4.039,4.305,13.831,19.803,20.865,16.638
		c3.855-1.638,13.398-10.083,12.422-14.638c-1.248-5.557-9.397-11-13.248-15c-11.15-11-22-22.604-33-33.961
		C328.014,507.711,317.483,492.11,311.013,494.797 M292.014,848.71c0.004,1.367,0.009,2.732,0.013,4.1
		c-0.113,1.511-0.181,3.528-0.013,5.901c0.118,1.672,0.275,2.412,0.548,4.904c0.324,2.951,0.343,4.094,0.516,6.002
		c0.361,3.992,0.989,6.873,1.434,9.094c1.782,8.887,6.864,39.762,8.061,44c27.419,97.137,96.649,178.742,189.441,219.436
		c35.603,15.613,77.968,27.375,117,27.564c53.606,0.258,105.784-6.844,154.999-29.475
		c157.691-72.508,234.533-255.518,177.367-418.526c-45.574-129.951-170.688-216-306.367-221.961
		c-56.999-2.49-115.999,12.961-165.999,39.184c-87.032,45.513-153.461,132.905-171.17,229.776c-4.561,24.949-6,50-6,50
		C291.36,830.505,291.593,840.695,292.014,848.71"/>
	<path clip-path="url(#SVGID_2_)" fill="#3F78A8" d="M397.229,496.042l1,1L397.229,496.042z"/>
	<path clip-path="url(#SVGID_2_)" fill="#FFFFFF" d="M958.229,595.042l-13-18c-7,1.709-12.477,6.275-20,4.721
		c-12.352-2.549-18.248-17.667-15.063-28.721c4.289-14.878,25.063-30.681,41.063-25.297c8,2.716,15.348,12.386,14.928,21.011
		c-0.184,3.801-3.408,7.557-2.928,11.286c0.785,5.777,9.744,14.102,15,16c6.625-10.748,10.473-20,8.709-32.996
		c-4.922-36.004-49.188-47.004-75.709-27.844c-34,24.594-29.512,80.406,16,88.375C938.468,605.545,948.411,599.09,958.229,595.042"
		/>
	<path clip-path="url(#SVGID_2_)" fill="#4172A1" d="M619.229,525.042l1,5h-25c0,6.107-1.778,13.394,6,14v-9h13
		c-1.58,10-10.73,14.191-20,15c6.688,14.057,25-5.561,26-15h9c0.357,17.305,6.422,17,22,17v-6c-11.059,0.091-16,2.089-16-11l13-1v8
		h6v-13c-9.422,0-23.582,4.07-29-5L619.229,525.042z M571.229,530.042l-31,10l1,5l6-1l5,16l-7,2l1,6l8-2c1.496,11.107,2.543,18,0,29
		l5,2c4.653-10.815,3-21.982,0-33l9-3l9,30l5-1l-9-31l8-2l-1-5l-9,2c-1.138-7.706-6.688-14.522,2-19L571.229,530.042z
		 M671.229,568.042l-5-1l-1,5l60,16l1-5l-5-1l11-39l-13-3c0.51,0.241,5.037,2.465,5.982,7.48c0.592,3.129-0.533,5.636-0.982,6.52
		c-3-0.333-6-0.667-9-1v5l7,1l-2,8l-8-2l-1,5l7,2l-2,8l-40-10l2-9l8,2l1-5l-7-1l1-8c7.637,1,11-3.548,2-5c1-7.258,5.352-7.981,12-8
		c-1-5.401-11.133-7.851-15-3.397C674.538,539.686,673.091,559.042,671.229,568.042 M700.229,533.042l-7,18l13,3
		c-2,6.014-2.74,12.439-10,13v5c12.303,1.445,13.922-10.959,16-21l-11-3l1-6l12,3l1-5l-10-2l1-4L700.229,533.042z"/>
	<polygon clip-path="url(#SVGID_2_)" fill="#FFFFFF" points="552.229,542.042 557.229,559.042 566.229,556.042 561.229,539.042 	"/>
	<path clip-path="url(#SVGID_2_)" fill="#4172A1" d="M514.229,548.042l1,5l8-2c1.578,8.501-4,25.543,4,30v-3h1
		c2.875,6.493,3.969,24.517,13,23l-1-5h11l-9-33l-13,3c0-9-2-17.348,9-19C534.493,538.264,521.106,546.09,514.229,548.042"/>
	<path clip-path="url(#SVGID_2_)" fill="#FFFFFF" d="M243.229,569.042c16.783,17.407,29.28,42.821,42.667,63
		c2.333,3.612,10.827,21.059,16.073,18.824c2.26-0.824,3.95-3.824,5.26-5.824c2.244-2.867,6.491-7,5.843-11
		c-1.101-6.603-11.236-11.834-9.544-18.999c2.271-9.612,12.869-16.891,16.701-26.001c5.508,1.471,15.437,6.724,20.985,5.268
		c5.792-1.521,12.01-13.054,14.015-18.268c-21.139-9-46-12-68-18.367c-7.73-2.217-22-9.201-29.826-7.297
		C251.618,551.769,245.199,564.042,243.229,569.042"/>
	<path clip-path="url(#SVGID_2_)" fill="#4172A1" d="M617.229,550.042c-0.61,11.13-10.453,9-19,9v5h17c-2.773,9.337-11.161,15-20,18
		l3,5c7.222-2,13.918-6,18.61-12c2.39-3,3.352-8.677,6.692-10.821c3.132-2.01,8.148-1.179,11.699-1.179
		c0,5.433-1.593,13.824,0.602,19c5.957,13.492,33.398-7.376,15.398-14c-0.016,5-6.242,18.431-10.383,8
		c-1.789-4.671,0.383-12.984,0.383-18h-19v-8H617.229z M694.229,555.042c-1.535,2.275-8.041,9.485-5.279,12.248
		c3.863,3.863,8.746-8.928,9.279-11.248L694.229,555.042z M756.229,557.042l-2,3v1l9,5l-3,6l-13-6c-0.586,6.83,7.389,9.183,12,13
		h-20c0.568,7.149,13.201,8.163,19,12l-10,5l-15-7l-1,5l12,5c-1.646,6.832-5.109,6-11,5c0.383,5,5.184,11,10.67,7.218
		c2.75-1.889,3.717-6.542,7.01-7.581c5.174-1.632,10.779,6.541,13.32-1.637l-11-4v-1c5.703-1.374,11.691-0.706,14-7l-10-6
		c7-1.812,10.619,0.022,17,3l-2-8l13-5c-2.459-7.895-14.549,1.156-20,3l-1-1l3-7l7,4l2-4l-6-3l3-6l-5-2
		C764.034,562.331,760.853,559.496,756.229,557.042"/>
	<polygon clip-path="url(#SVGID_2_)" fill="#FFFFFF" points="532.229,571.042 538.229,591.042 544.229,590.042 538.229,569.042 	"/>
	<path clip-path="url(#SVGID_2_)" fill="#4172A1" d="M457.229,580.042l2,5l5-2c-1.832,7.713-8.247,13.624-10.008,21
		c-1.639,6.779,5.473,1.546,7.008-1h1l2,4l17-10l5,10c-5.496,2.08-15.306,6.098-13,13l17-9l5,10l-22,13l2,5
		c16.843-6.384,35.701-21,50-32v-1l-2-3l-22,14h-1l-6-10l14-8c-2.551-8.301-12.292,0.173-16,4h-1l-6-8v-1
		c6.279-3.496,14.414-6.953,14-15c4.89-0.381,5.845-2.276,6-7l-19,2.791l-16-2.191L457.229,580.042z M770.229,592.042l1,5
		c8.746-2.792,12.297-10.21,22-7c-2.684,8.089-10.166,15.186-17,20l2-11c-7.324,0.584-7.732,9-8,15l-18,1
		c0.723,9.281,11.67,5.638,18,4l4,15l6-1c-6.088-15.78-0.537-16.399,9.826-28c3.545-3.969,6.117-10.461,12.174-9l2-5l-13-7
		C801.683,563.392,777.552,588.042,770.229,592.042 M273.229,575.042l17,26h1l11-18L273.229,575.042z"/>
	<path clip-path="url(#SVGID_2_)" fill="#FFFFFF" d="M471.229,578.042l-8,24c10.218-5.689,24.535-12.968,32-22L471.229,578.042z"/>
	<path clip-path="url(#SVGID_2_)" fill="#4172A1" d="M662.229,582.042l1,5l23-4C680.815,576.606,669.804,582.042,662.229,582.042
		 M701.229,587.042v2l16,13h1l4-3C717.903,593.042,709.077,583.694,701.229,587.042"/>
	<path clip-path="url(#SVGID_2_)" fill="#FFFFFF" d="M937.229,629.042c0.725,3.128,1.697,6.063,3,9c1.338,3,2.902,8.062,5.688,10
		c3.039,2.026,7.525-0.867,10.313-2.167c5.732-2.678,19.578-13.001,25.865-11.248c2.969,0.827,4.322,4.961,5.555,7.415
		c3.857,7.685,7.115,15.631,11.58,23l-27,12.742l-8.418,6.446l7.418,17.812c8.676-0.402,16.35-5.855,24-9.576
		c13.645-6.636,27.551-12.881,41-19.895c5.689-2.967,16.428-5.775,20.355-10.944c3.09-4.066-4.355-19.768-9.412-19.852
		c-9.229-0.151-22.404,10.711-30.943,14.267l-11-23l-2.635-8.712l8.635-5.209l22-11.079c-1.574-4.681-5.76-17.934-11.131-19.173
		c-6.01-1.386-17.582,7.609-22.869,10.253C978.72,609.377,957.921,619.157,937.229,629.042"/>
	<path clip-path="url(#SVGID_2_)" fill="#4172A1" d="M810.229,620.042h-1l-2-3h-1c-4.102,4-8.65,6.38-5,12h1
		c7.559-6.421,11.775,2.568,17,8c5.6,5.801,15.461,13.518,18.535,21c1.012,2.465-3.098,8.549-0.158,9.654
		c3.295,1.346,7.623-4.654,9.623-6.654v-1l-3-3l20-16v-1c-4-4.245-7.627-11.418-14-9v1l7,9l-9-6l-4,2l7,9l-3,2h-1l-6-7h-1l-2,2v1
		c3.293,3.499,5.295,5.43,3,10h-1c-6-9.386-14.752-16.592-22-25c-4.82-5.843-0.057-6.987,4-2c3.861-4.225-3-15.293,7-6h1l2-2v-1
		c-3.18-3.321-5.254-5.354-4-10h1l9,6c0-4.678-5.533-12-11-10.658C821.2,605.042,813.69,615.127,810.229,620.042 M626.229,894.042
		c29.299-15.598,57.532-33.92,86-51.001c9.189-5.514,28.223-12.387,33.971-21.514c2.65-4.205,1.029-12.68,1.029-17.486v-43v-58.999
		c0-6.896,2.215-18.396-0.604-24.74c-3.396-7.26-20.625-13.728-27.436-17.818c-22.24-13.352-44.305-27.269-66.961-39.902
		c-7-3.814-17.242-13.491-25.081-14.133c-4.634-0.379-11.177,5.405-14.92,7.743c-12,7.403-24,14.501-36.015,21.56
		c-16.72,9.785-33.507,19.51-49.985,29.714c-5.27,3.263-15.535,6.839-19,12.047c-4.477,6.824-1,25.529-1,33.529v80.999
		c0,7.555-3.118,24.055,1,30.473c5.772,8.895,23.854,15.127,32.83,20.529C568.539,859.184,599.229,874.493,626.229,894.042"/>
	<path clip-path="url(#SVGID_2_)" fill="#FFFFFF" d="M187.229,678.042c4,2.062,12,7.469,16.736,6.187
		c5.525-1.515,10.47-19.075,11.264-24.187c23.394,6.688,44.315,23.683,67.981,29.103c5.725,1.311,13.415-15.02,10.747-19.594
		c-2.124-3.509-10.065-5.321-13.728-6.972c-12.267-5.529-24.726-10.537-37-16.152c-4-1.765-15.202-4.625-16-9.573
		c-1.076-6.812,7.509-17.685,9-24.812l-17.582-4.918l-8.98,17.933L187.229,678.042z"/>
	<path clip-path="url(#SVGID_2_)" fill="#4172A1" d="M429.229,609.042l-16,19c-5-1.399-9-2.676-11,3l5,1
		c-5.818,11.214-24.108,20.484-5,29c1.427-4,0.903-6-3-8l29-36l7,5h1l3-5L429.229,609.042z M841.229,616.042v4l-7-2
		c1.811,3.106,3.623,6.212,5.434,9.318c0.523,0.894,1.043,1.788,1.566,2.682h4l6-3c-0.652-3.911-2.137-4.7-6-5v-6H841.229z
		 M444.229,620.042l-8,9l-1-3l-5,3v1c2.542,6.558-4.7,11.688-9,16l-3-11c-7.082,5.522-0.366,9.273-2.314,16
		c-1.686,5.569-8.089,10.583-11.686,15v1l3,3h1l11-12l3,13l18-10l-12,27l5,1l9.934-18l4.63-13.363l22.436-10.637l-1-5l-24,9
		c-0.678-5-4.523-11-4.096-16C441.686,628.726,450.923,625.841,444.229,620.042 M830.229,625.042l1,5l-7-2v5
		c5.215,1.375,7,3.589,7,9h5v-6h6l-1-4h-6C835.091,627.866,834.591,625.77,830.229,625.042 M789.229,631.042v1l19,20v1
		c-5,2-7,0-10-4c-4.402,4.46-0.07,11.758,6,12.338c4,0.393,6.77-4.146,10.713-1.042c5.287,4.286,11.51,17.704,19.287,14.704v-1
		l-18-20c5.672,2.362,10.943,7,17,4v-1c-6.529-6.533-18.266-25.818-28-25l17,20c-4-1.694-9.518-2.86-13-5.403
		C803.665,642.404,797.128,628.042,789.229,631.042"/>
	<path clip-path="url(#SVGID_2_)" fill="#FFFFFF" d="M434.229,639.042c-6.611,8.678-11.583,11.79-8,23c13.603-4.95,14.993-10,10-23
		H434.229z"/>
	<polygon clip-path="url(#SVGID_2_)" fill="#9EAECA" points="820.229,650.042 820.229,652.042 822.229,652.042 	"/>
	<path clip-path="url(#SVGID_2_)" fill="#C1CBDE" d="M816.229,654.042l1,1L816.229,654.042z"/>
	<path clip-path="url(#SVGID_2_)" fill="#4172A1" d="M481.229,669.042c-33.644,33.737-59.213,75.999-68.629,122.999
		c-14.997,75.001,9.551,157.808,68.629,207.563c19.523,16.441,42,28.438,66,36.863c21.569,7.719,45.975,14.574,69,14.574v-101
		c0-7.938,3.832-30-1.604-36c-8.072-8.977-24.021-15.295-34.396-21.283c-22-12.686-44.368-25.342-65.715-39.063
		c-7.802-5.016-28.285-12.041-31.682-20.654c-3.802-9.408-0.603-25.957-0.603-36v-88.999
		C482.229,697.042,485.537,679.308,481.229,669.042 M772.229,669.042v116.999v32c0,4.559,0.961,10.576-1.279,14.738
		c-4.721,8.564-23.473,15.914-31.721,20.863c-21.604,12.962-43,26.642-65.004,38.856c-10.002,5.547-27.139,12.178-34.395,21.072
		c-5.602,6.668-1.602,28.025-1.602,36.471v101c21.635,0,45.822-6.186,66-13.844c31.631-12.008,62.318-27.92,85.334-53.439
		C867.229,897.512,861.229,746.205,772.229,669.042 M846.229,682.042l10,23l-18,8l2,5c5.506-0.982,12.479-7.513,17.787-6.898
		c5.125,0.594,9.799,15.898,12.213,19.898l26-12l-10-24l10-4l-2-5l-11,5l-11-22L846.229,682.042z M371.229,671.042l-16,33l5,2l11-24
		h1l-5,20l7-5l-5,13l32,15l2-5c-8.292-3.489-7.091-6.562-4-14l10,4l1-4l-9-4l4-10c3.851,2,4.179,4,3,8c5-0.171,10.934-5,5.562-10
		c-6.562-6-20.08-11.557-28.562-14l-6,12C375.967,682.042,379.675,672.845,371.229,671.042"/>
	<path clip-path="url(#SVGID_2_)" fill="#FFFFFF" d="M615.229,671.636c-14.283,3.406-27.1,8.555-38.039,18.591
		c-48.509,44.501-23.46,124.853,40.039,136.278c9.683,1.74,18.381,0.957,28-1.309c76.691-18.059,72.957-133.638-1-152.155
		C635.229,670.769,624.229,669.553,615.229,671.636 M853.229,684.042c1.197,4.164,4.477,15,9.213,16.184
		c4.514,1.151,11.691-4.479,15.787-6.184c-1.199-4-4.479-14.976-9.213-16.184C864.501,676.707,857.229,682.337,853.229,684.042
		 M388.229,695.042l4-11C384.229,682.38,380.671,691.444,388.229,695.042 M396.229,687.042l-4,10l6,2l4-10L396.229,687.042z"/>
	<path clip-path="url(#SVGID_2_)" fill="#4172A1" d="M422.229,692.042c-7.573,14.206-12.015,33.101-28,40
		c-2.45-5.238-6.492-8.364-12-10l-5,7c-1.275-6.61-5.05-13.585-12-15l-6,16l4,1l5-9c2.618,6.288,5,13.615,12,16l4-9
		c5.337,5.352,11,19.672,19,17.999l-5-10.999c13.638-5.886,25.436-27.615,28-42L422.229,692.042z"/>
	<path clip-path="url(#SVGID_2_)" fill="#FFFFFF" d="M379.229,697.042l-4,10l6,2C384.208,704.042,386.747,698.611,379.229,697.042
		 M864.229,706.042c1.197,4.164,4.477,15,9.213,16.184c4.514,1.151,11.691-4.479,15.787-6.184c-1.199-4-4.479-14.976-9.213-16.184
		C875.501,698.707,868.229,704.337,864.229,706.042 M385.229,712.042l5,2l5-10C388.725,701.097,386.229,706.069,385.229,712.042"/>
	<path clip-path="url(#SVGID_2_)" fill="#4172A1" d="M555.229,736.042c13.344,8.651,2,21.616,7.603,33.833
		c3.579,7.926,5.397-6.824,5.397-8.834v-8v-12l35,12.426l22,6.924l23-7.295l47-17.053l-46-17l-24-7.813l-24,7.813L555.229,736.042z
		 M347.229,717.042l1,5l13-5l-1-5L347.229,717.042z"/>
	<path clip-path="url(#SVGID_2_)" fill="#FFFFFF" d="M203.895,769.875c-19.323,2.783-13.696,31.756,4.966,28.227
		C227.256,794.623,222.83,767.146,203.895,769.875"/>
	<path clip-path="url(#SVGID_2_)" fill="#4172A1" d="M341.229,744.041l-4,25l-3-1l-3,4v1l9,12c6.6-3.801,1-7.242,1-13
		c-0.005-6.396,2.403-13.826,4-20l5,4C352.785,749.113,348.025,744.798,341.229,744.041 M359.229,746.041
		c-2.546,6.115-6.042,15.338-13,17l5,25l4-2l-2,14l26,5l2-10h1l1,19l5-1l-2-24l-4,2c0.583-7.324,7.333-21.861,4.357-28.566
		c-2.19-4.936-20.401-6.039-25.357-6.434C362.797,751.595,362.978,749.197,359.229,746.041 M864.229,746.041l-1,5l32,2v-5
		L864.229,746.041z M579.229,753.041c0,6.623-2.004,17.195,1.742,23c4.048,6.189,12.508,8.676,19.258,10.572
		c17.996,5.055,55.426,6.939,68.565-9.572c4.436-5.881,2.436-17,2.436-24l-46,15.344L579.229,753.041z M395.229,754.041
		c-4,5.791-10.448,16.492-4,22C394.169,769.757,401.568,759.472,395.229,754.041"/>
	<path clip-path="url(#SVGID_2_)" fill="#FFFFFF" d="M360.229,756.041c-6.456,11.223-9,13.328-4,26h1L360.229,756.041z"/>
	<path clip-path="url(#SVGID_2_)" fill="#4172A1" d="M884.229,786.041c-13.627,0.586-18-0.979-18-16l39-7l-1-6
		c-10.393,1.344-20.725,4-31,6c-3.684,0.736-9.527,1-11.822,4.42c-2.396,3.609-0.525,9.697,0.271,13.58
		c0.551,3,1.279,6.365,3.254,8.723C869.536,795.265,883.612,793.773,884.229,786.041 M901.229,776.041c5.6,10.115,17-8.875,20-14
		C913.229,758.814,907.026,771.611,901.229,776.041"/>
	<path clip-path="url(#SVGID_2_)" fill="#FFFFFF" d="M365.229,762.041l-7,33h4l6-32L365.229,762.041z M371.229,764.041
		c-0.593,7.445-9.152,28.359-2,33l6-33H371.229z M379.229,765.041l-6,33c7.568-2.504,8.849-25.707,9-33H379.229z"/>
	<path clip-path="url(#SVGID_2_)" fill="#4172A1" d="M332.229,784.041l-3,19h5l3-18L332.229,784.041z M340.229,806.041l5,1
		c0.354-4.463,4.91-15.646,1.977-19.338C343.578,783.138,340.418,803.664,340.229,806.041 M899.229,786.041l-23,15l2,6
		C884.462,804.433,907.89,793.515,899.229,786.041"/>
	<path clip-path="url(#SVGID_2_)" fill="#FFFFFF" d="M444.211,1206.038c-12.48-7.254-32.161-12.207-41.469-23.527
		c-3.361-4.092,2.296-19.605,1.585-25.984c-1.355-12.242-9.311-21.479-15.827-31.285c-13.132,7.408-6.199,38.936-0.175,49.244
		c-6.4-4.063-19.534-10.76-21.691-18.689c-1.573-5.795,1.246-14.529,1.153-20.76c-0.124-9.691-3.199-17.465-7.537-25.98
		c-2.408-4.859-4.905-11.389-10.883-11.896c-4.506,16.391-4.554,29.82-0.835,46.316l-0.976,0.221
		c-4.754-5.674-15.978-10.402-18.724-17.307c-2.545-6.428,4.64-17.889,5.147-24.736c1.263-13.816-4.522-27.654-10.967-39.559
		c-14.705,14.119-8.35,31.17-12.762,47.982l-20.79-24.018c20.061-12.098,13.186-44.734,3.61-61.293
		c-12.446,9.314-18.359,30.605-15.372,45.492l-0.975,0.221c-3.729-6.766-16.637-19.232-15.697-27.111
		c0.667-5.912,9.212-11.795,11.837-17.297c6.328-12.855,5.181-32.721-0.226-45.842c-3.257-7.898-11.487,4.023-13.618,7.211
		c-7.403,11.09-10.078,24.822-9.875,38.002l-0.976,0.219c-1.857-7.965-5.918-15.066-9.297-22.506
		c-1.284-2.785-4.632-6.727-3.872-10.086c1.195-5.291,14.109-9.986,17.64-15.016c9.426-13.523,8.189-32.477,4.784-47.762
		c-16.095,3.998-31.32,26.998-29.153,43.475l-0.976,0.221c-6.74-15.713-2.321-25.76-1.504-41.689
		c0.988-18.674-4.234-39.199-16.899-53.596l-1.951,0.439c-4.452,10.629-9.821,20.102-10.032,31.988
		c-0.401,22.869,17.62,38.057,22.458,59.52l-0.976,0.219c-9.065-14.613-29.633-29.506-47.061-31.42
		c-0.757,16.604,19.33,38.818,32.896,45.889c7.206,3.635,16.982,4.076,23.156,9.184c6.67,5.621,9.488,19.941,12.859,27.803
		l-0.975,0.221c-11.625-13.781-33.693-19.592-50.936-21.322c0.3,5.879,5.127,11.146,8.616,15.484
		c9.214,11.27,20.298,21.832,34.6,26.162c6.408,1.959,16.333,1.014,21.878,4.693c6.837,4.549,15.801,21.533,19.521,28.895
		c-14.67-8.42-34.87-16.311-52.102-12.857c7.21,16.57,28.603,28.529,45.894,30.793c5.682,0.738,12.732-2.635,17.956-0.654
		c8.71,3.305,14.507,16.154,20.805,22.537c-16.002-5.006-35.55-7.363-51.195,0.264c7.72,14.969,34.082,24.227,50.142,22.35
		c5.653-0.658,11.702-5.795,17.236-4.98c9.076,1.336,19.616,14.531,25.369,21.18c-14.188-4.871-37.268-0.662-49.436,8.068
		c14.924,19.188,47.138,16.025,64.001,1.975l20.006,15.992c-12.301,2.771-42.517,7.656-44.942,23.457
		c10.714,3.734,23.623,10.389,35.225,6.195c6.655-2.311,13.424-6.84,18.992-11.242c2.536-2.078,5.358-5.975,8.957-5.74
		c5.237,0.49,11.709,5.418,16.406,7.793c12.586,6.359,26.287,13.705,40.741,13.799
		C454.72,1209.819,449.085,1208.967,444.211,1206.038"/>
	<path clip-path="url(#SVGID_2_)" fill="#FFFFFF" d="M986.976,1056.922c-4.707,7.215-10.197,13.971-15.02,21.023
		c15.275-9.242,35.467-17.494,53.789-13.559c-7.756,15.971-28.385,27.389-45.416,29.775c-5.955,0.854-13.813-2.961-19.168-0.734
		c-8.326,3.506-15.055,15.508-21.066,22c16.594-4.842,35.08-6.025,51.18,1.246c-8.029,14.832-33.588,23.217-49.582,21.594
		c-6.027-0.615-12.309-6.4-18.168-5.688c-8.652,1.148-20.049,14.547-25.717,20.857c14.354-4.609,37.074-0.016,49.271,9.014
		c-9.195,11.189-31.395,16.043-44.984,11.254c-5.297-1.867-12.992-8.516-18.617-8.043c-6.561,0.551-14.877,9.248-19.764,13.381
		c12.537,3.08,24.104,5.922,34.74,13.682c3.984,2.762,8.441,5.205,8.773,10.395c-10.285,2.92-20.379,8.379-31.504,6.678
		c-15.393-2.352-17.514-18.574-30.465-18.502c-4.629,0.025-5.332,1.883-25.729,10.877c-5.725,2.516-10.484,4.498-13.688,5.801
		c-0.984-0.189-1.965-0.391-2.947-0.58c0.814-1.684,2.225-4.148,4.51-6.625c3.941-4.262,8.24-6.131,10.648-7.207
		c14.779-6.596,22.168-9.887,24.363-14.549c2.611-5.516-1.949-9.756-2.318-17.098c-0.582-11.469,7.424-36.131,19.988-39.367
		c2.717,18.285,1.719,30.727-2.711,48.762c6.328-3.832,17.59-9.355,20.549-16.578c2.656-5.824-1.205-16.059-0.297-22.727
		c1.764-14.477,8-25.527,16.057-37.244l2.914,0.715c3.162,15.883,5.67,30.535-0.053,46.326l0.971,0.238
		c4.467-5.605,17.588-10.684,19.408-17.887c1.521-5.99-3.922-13.754-4.689-19.688c-1.824-14.113,2.502-32.656,12.357-43.303
		l0.971,0.238c9.154,15.637,11.77,31.734,7.479,49.205l0.971,0.238l22.695-25.316c-21.43-13.791-9.014-42.961-3.406-61.59
		c14.063,8.232,17.299,30.188,15.707,45.047c5.182-3.32,18.322-20.09,16.785-26.574c-2.23-8.662-11.877-14.367-14.035-24.236
		c-3.113-13.359,0.043-29.555,5.602-41.873c18.154,7.127,18.652,31.592,21.295,47.451c4.484-6.686,7.701-14.584,11.184-21.969
		c0.963-2.326,3.707-5.494,3.189-8.164c-1.02-5.234-13.365-9.977-16.74-14.729c-9.602-14.189-8.438-32.717-4.564-48.488
		c17.592,4.723,28.305,27.301,29.287,44.264l0.971,0.238c1.584-6.447,5.365-14.674,5.227-21.277
		c0.086-12.922-4.887-24.162-2.879-37.869c2.002-13.596,9.709-24.389,15.936-36.244c5.5,4.439,8.148,11.268,9.912,17.879
		c8.201,31.877-15.609,48.281-22.863,76.762l0.973,0.24c6.969-15.795,33.127-32.744,50.313-32.949
		c-6.012,18.182-17.588,35.838-34.742,45.012c-7.068,3.629-18.035,3.416-23.816,8.885c-7.434,7.123-8.01,20.027-14.109,28.137
		c16.027-10.748,34.295-21.314,54.486-20.596c-6.27,15.965-24.518,33.527-40.514,39.166c-7.889,2.777-19.268,1.352-26.287,5.445
		C990.187,1049.504,989.026,1053.77,986.976,1056.922"/>
	<path clip-path="url(#SVGID_2_)" fill="#00A0E9" d="M291.229,842.041l1,1L291.229,842.041z M292.229,844.041l1,1L292.229,844.041z"
		/>
	<path clip-path="url(#SVGID_2_)" fill="#4677A6" d="M205.229,882.042l1,1L205.229,882.042z"/>
	<path clip-path="url(#SVGID_2_)" fill="#4172A1" d="M389.229,948.042l-41,28l4,6h1l41-29l10,15h1l4-3l-25-36
		C374.625,932.042,386.403,943.081,389.229,948.042 M845.229,971.042l5,2l10-15h1c9.229,10.393,27.998,24.072,41,29l3-4v-1l-41-29
		l11-15c-4.76-5.193-7.807-0.467-11,4C858.124,950.577,847.663,960.772,845.229,971.042 M409.229,968.042l-28,50v1
		c6.771,6.1,11.185,1.689,18-2.398c10.332-6.199,20.724-12.311,31-18.602c-3.381,11.715-11.507,23.275-17.309,34
		c-1.788,3.307-6.691,9-3.983,12.811c3.292,5.189,10.869-1.357,14.292-3.41c12.47-7.4,24.829-16.242,38-22.4c-3.583-7-9-3-14,0.334
		c-10.591,7.008-21.468,13.666-32,20.666c5-10.852,11.595-21.434,17.309-32c1.903-3.52,6.372-8.719,4.558-12.977
		c-2.867-6.447-8.867-2.668-12.867-0.223c-11.699,6.996-23.693,13.578-35,21.199c5-11,12.379-21.502,18.603-32
		C411.229,978.116,415.913,973.198,409.229,968.042"/>
	<path clip-path="url(#SVGID_2_)" fill="#00A0E9" d="M792.229,979.042l1,1L792.229,979.042z"/>
	<path clip-path="url(#SVGID_2_)" fill="#8F82BC" d="M791.229,981.042l1,1L791.229,981.042z"/>
	<path clip-path="url(#SVGID_2_)" fill="#4172A1" d="M839.229,1029.042l-3,6c17,9.689,47-9,34-28.955
		c-12.504-19.021-29,8.652-42,5.955c-13.055-2.82-1.346-18.48,5-21.424c6-2.791,10.328,1.928,16-2.576
		c-13.045-14.934-41,7.697-32,24c12.438,22.291,32.994-13.467,45.865-3.471c6.361,4.939,2.414,12.705-2.051,17.471
		C854.468,1032.829,847.229,1033.104,839.229,1029.042"/>
	<path clip-path="url(#SVGID_2_)" fill="#4476A5" d="M235.229,998.042l1,1L235.229,998.042z"/>
	<path clip-path="url(#SVGID_2_)" fill="#4273A3" d="M1019.229,998.042l1,1L1019.229,998.042z"/>
	<line clip-path="url(#SVGID_2_)" fill="#B3BED6" x1="769.229" y1="1003.042" x2="771.229" y2="1001.042"/>
	<line clip-path="url(#SVGID_2_)" fill="#C2C3C4" x1="762.229" y1="1008.042" x2="764.229" y2="1008.042"/>
	<path clip-path="url(#SVGID_2_)" fill="#00A0E9" d="M760.229,1008.042l1,1L760.229,1008.042z"/>
	<path clip-path="url(#SVGID_2_)" fill="#1D2088" d="M758.562,1009.709l0.334,0.666L758.562,1009.709z"/>
	<path clip-path="url(#SVGID_2_)" fill="#00A0E9" d="M759.229,1009.042l1,1L759.229,1009.042z"/>
	<path clip-path="url(#SVGID_2_)" fill="#4172A1" d="M799.229,1013.042c-4.053,4-3.379,6.438-0.275,11
		c5.93,8.725,19.275,21.363,19.275,32.576c-0.023,14.424-18.789,17.133-26.826,8.424c-3.381-3.682-6.174-7.928-8.895-12
		c-4.279-5.943-8.742-11.652-12.279-18c-8.379,3-3.059,9,0.576,14c6.424,9.154,13.359,23.65,24.424,28
		c12.891,4.758,30.654-8.32,29.891-22C824.229,1042.042,808.614,1021.62,799.229,1013.042 M470.229,1022.042
		c-9.116,14.773-26.639,31.189-31,48l6,2l31-46L470.229,1022.042z"/>
	<path clip-path="url(#SVGID_2_)" fill="#4578A7" d="M264.562,1037.709l0.334,0.666L264.562,1037.709z"/>
	<path clip-path="url(#SVGID_2_)" fill="#96A7C6" d="M415.562,1038.709l0.334,0.666L415.562,1038.709z"/>
	<path clip-path="url(#SVGID_2_)" fill="#4172A1" d="M468.229,1069.042c-1.411,7.604-1.299,14.816,4.329,20.816
		c8.311,8.857,27.973,14.393,35.098,1.184c6.978-12.963-7.565-21.82-15.427-29.285c-4.128-4.059-7-9.951-1-13.971
		c15.536-10.398,18.772,16.73,27,19.256c2.778-14.975-10-29.482-26-26.67c-10,1.732-14.493,12.123-9.633,20.67
		c4.182,7.355,12.205,11.412,17.351,18c3.822,5,2.282,11-3.723,13.256c-7.596,2.857-18.284-4.508-21.187-11.256
		C472.602,1075.383,475.559,1071.042,468.229,1069.042 M716.229,1060.042l2,6l18-8l20,46l6-2l-20-47l16-7l-1-6L716.229,1060.042z
		 M570.229,1108.042l-6-3c-8.819,11.541-25.5,14.033-32-2c-2.8-6.939-0.512-16.645,2.825-23c8.755-16.674,31.175-13.994,34.175,5h7
		c-2.343-17.381-22-28.975-38-19c-9,5.566-13.525,16.775-14,27C523.229,1117.448,559.129,1134.186,570.229,1108.042
		 M702.229,1064.042l10,44c-9.375-9.295-19.541-17.771-29-26.984c-5.404-5.262-10.129-10.586-18-8.016l13,55l5.223-3.303
		l-2.014-11.697l-7.209-30c13.627,9.598,29.439,36.191,47,35c-2-14-6.469-28-9.652-42
		C710.181,1070.042,710.028,1062.399,702.229,1064.042 M657.229,1131.042c-7.385,0.24-11.49,6-18,8.662
		c-10.562,4.559-26.298,3.404-36-2.662c-24.768-15.953-11.422-55.881,16-58.824c13.214-1.42,27.397,5.402,31.211,18.824
		c2.43,8.555-2.211,26.285-13.211,27.029c-4.583,0.313-4-5.029-3.345-8.029c1.804-8.572,4.96-17.217,5.345-26h-6l-1,6
		c-2.414-2.342-4.78-4.887-8-6c-27-10.33-33.089,48.404-6,39.299c3-1.043,5.557-3.223,8-5.299c2.933,18.547,26-3.424,28.778-12
		c7.223-23.498-13.865-40.443-35.778-38.908c-15,1.047-27,10.908-31.645,24.908c-4.688,14-3.088,30.729,8.645,40.672
		C611.726,1151.819,647.687,1151.491,657.229,1131.042"/>
	<path clip-path="url(#SVGID_2_)" fill="#497DAC" d="M961.562,1078.709l0.334,0.666L961.562,1078.709z"/>
	<path clip-path="url(#SVGID_2_)" fill="#FFFFFF" d="M617.229,1094.749c-12.63,4.295-15.415,35.709,1,30.105
		C631.566,1120.301,634.839,1089.043,617.229,1094.749"/>
	<path clip-path="url(#SVGID_2_)" fill="#00A0E9" d="M894.229,1159.042l1,1L894.229,1159.042z"/>
	<path clip-path="url(#SVGID_2_)" fill="#FFFFFF" d="M851.229,627.042c-1.266-0.047-2.217-0.089-2.734-0.112
		c-1.709-0.077-2.213-0.114-2.625,0.271c-0.453,0.424-0.559,1.138-0.633,1.63c-0.076,0.504-0.047,0.929-0.008,1.211L851.229,627.042
		z"/>
	<path clip-path="url(#SVGID_2_)" fill="#4172A1" d="M840.384,625.948c8.57,0.023,17.143,0.045,25.717,0.068"/>
	<path clip-path="url(#SVGID_2_)" fill="#FFFFFF" d="M516.277,1234.875c-19.323,2.783-13.696,31.756,4.966,28.227
		C539.638,1259.624,535.211,1232.147,516.277,1234.875"/>
	<path clip-path="url(#SVGID_2_)" fill="#FFFFFF" d="M729.896,1234.875c-19.324,2.783-13.697,31.756,4.965,28.227
		C753.257,1259.624,748.831,1232.147,729.896,1234.875"/>
	<path clip-path="url(#SVGID_2_)" fill="#FFFFFF" d="M1046.843,776.609c-19.322,2.785-13.695,31.756,4.967,28.229
		C1070.204,801.359,1065.778,773.882,1046.843,776.609"/>
</g>
</svg>
